<?xml version="1.0" encoding="utf-8"?>
<!-- Generator: Adobe Illustrator 24.0.0, SVG Export Plug-In . SVG Version: 6.00 Build 0)  -->
<svg version="1.1" id="Layer_1" xmlns="http://www.w3.org/2000/svg" xmlns:xlink="http://www.w3.org/1999/xlink" x="0px" y="0px"
	 viewBox="0 0 256 256" style="enable-background:new 0 0 256 256;" xml:space="preserve">
<style type="text/css">
	.st0{fill:#382B73;}
	.st1{fill:#291B4A;}
	.st2{fill:#ED9ABC;}
	.st3{fill:#E54890;}
	.st4{fill:#D3D3D3;}
	.st5{fill:#EBE7F2;}
	.st6{fill:#F9B087;}
	.st7{fill:#FF8639;}
	.st8{fill:#65C1D6;}
	.st9{fill:#149CB2;}
</style>
<g>
	<g>
		<g>
			<g>
				<g>
					
						<ellipse transform="matrix(0.7071 -0.7071 0.7071 0.7071 -53.0193 128)" class="st0" cx="128" cy="128" rx="119.4" ry="119.4"/>
				</g>
			</g>
		</g>
	</g>
	<g>
		<g>
			<g>
				<g>
					<path class="st1" d="M151.381,43.228l-4.116-4.116c-1.632-1.632-4.163-1.955-6.156-0.782l-4.103,2.422l-1.19-4.617
						c-0.579-2.235-2.596-3.797-4.905-3.797h-5.821c-2.309,0-4.326,1.562-4.906,3.8l-1.189,4.614l-4.106-2.424
						c-1.989-1.17-4.52-0.849-6.153,0.784l-4.116,4.116c-1.633,1.633-1.956,4.163-0.783,6.156l2.422,4.104l-4.617,1.189
						c-2.236,0.579-3.798,2.596-3.798,4.906v5.821c0,2.309,1.561,4.326,3.8,4.906l4.614,1.189l-2.424,4.106
						c-1.171,1.991-0.849,4.521,0.785,6.153l4.116,4.116c1.632,1.634,4.164,1.958,6.156,0.782l4.104-2.422l1.19,4.618
						c0.579,2.236,2.596,3.797,4.905,3.797h0.411v22.185h-12.806c0.131-5.001-0.481-15.531-7.17-22.219
						c-8.829-8.83-24.362-7.071-25.019-6.992c-1.144,0.138-2.045,1.039-2.183,2.183c-0.079,0.657-1.838,16.189,6.992,25.019
						c6.219,6.22,15.764,7.186,21.093,7.186c1.923,0,3.293-0.126,3.763-0.176H125.5v22.053h-3.474l-4.351-7.831
						c-1.69-3.043-4.903-4.933-8.384-4.933H83.327c-5.289,0-9.591,4.302-9.591,9.591v14.418c0,0.137,0.019,0.269,0.04,0.399
						c-0.017,0.264-0.04,0.526-0.04,0.794v54.898c0,6.859,5.58,12.439,12.439,12.439h29.185c1.381,0,2.5-1.119,2.5-2.5
						s-1.119-2.5-2.5-2.5H86.175c-4.102,0-7.439-3.337-7.439-7.439v-54.898c0-4.102,3.337-7.439,7.439-7.439h83.649
						c4.102,0,7.439,3.337,7.439,7.439v54.898c0,4.102-3.337,7.439-7.439,7.439H140.64c-1.381,0-2.5,1.119-2.5,2.5
						s1.119,2.5,2.5,2.5h29.185c6.859,0,12.439-5.58,12.439-12.439v-54.898c0-6.859-5.58-12.439-12.439-12.439H130.5v-22.053h15.329
						c0.471,0.05,1.839,0.176,3.763,0.176c5.33,0,14.874-0.966,21.093-7.186c8.83-8.83,7.071-24.362,6.992-25.019
						c-0.138-1.144-1.039-2.045-2.183-2.183c-0.658-0.08-16.19-1.839-25.019,6.992c-6.689,6.688-7.3,17.218-7.17,22.219H130.5
						V92.649h0.411c2.309,0,4.326-1.561,4.906-3.8l1.189-4.614l4.105,2.423c1.99,1.172,4.521,0.849,6.154-0.784l4.116-4.116
						c1.634-1.633,1.957-4.164,0.783-6.156l-2.422-4.104l4.618-1.19c2.236-0.579,3.797-2.596,3.797-4.905v-5.821
						c0-2.31-1.562-4.327-3.798-4.906c0,0-0.001,0-0.002,0l-4.615-1.189l2.423-4.106C153.337,47.391,153.015,44.86,151.381,43.228z
						 M97.187,100.952c-0.976-0.977-2.56-0.977-3.535,0c-0.977,0.976-0.977,2.559,0,3.535l10.438,10.438
						c-4.626-0.272-11.064-1.461-15.24-5.636c-5.438-5.438-5.818-14.723-5.691-18.83c4.112-0.127,13.393,0.254,18.83,5.691
						c4.176,4.176,5.366,10.615,5.637,15.241L97.187,100.952z M86.175,141.887c-2.791,0-5.361,0.935-7.439,2.493v-5.666
						c0-2.531,2.06-4.591,4.591-4.591h25.964c1.667,0,3.204,0.905,4.013,2.361l3.001,5.402H86.175z M154.011,96.15
						c5.438-5.437,14.722-5.816,18.83-5.691c0.127,4.107-0.253,13.392-5.691,18.83c-4.178,4.178-10.617,5.371-15.244,5.64
						l10.443-10.443c0.977-0.976,0.977-2.559,0-3.535c-0.976-0.977-2.56-0.977-3.535,0l-10.439,10.439
						C148.645,106.764,149.835,100.326,154.011,96.15z M153.108,59.518l0.624-2.421l-0.576,2.485l-0.047,5.886l-7.833,2.018
						c-0.761,0.196-1.385,0.738-1.686,1.464c-0.301,0.726-0.243,1.551,0.157,2.227l4.1,7.045l-4.196,4.128l-6.966-4.111
						c-0.677-0.4-1.502-0.458-2.227-0.157c-0.726,0.301-1.269,0.925-1.464,1.686l-2.083,7.88l-5.886-0.047l-2.018-7.833
						c-0.196-0.761-0.738-1.385-1.464-1.686c-0.307-0.127-0.632-0.19-0.957-0.19c-0.441,0-0.881,0.117-1.271,0.347l-7.045,4.1
						l-4.128-4.195l4.112-6.966c0.399-0.677,0.458-1.502,0.157-2.228c-0.301-0.726-0.925-1.269-1.686-1.464l-7.88-2.083l0.048-5.886
						l7.833-2.019c0.761-0.196,1.385-0.738,1.686-1.464c0.301-0.726,0.243-1.551-0.157-2.228l-4.1-7.045l4.195-4.128l6.966,4.112
						c0.676,0.399,1.501,0.458,2.228,0.157s1.269-0.925,1.464-1.686l2.083-7.88l5.886,0.047l2.018,7.833
						c0.196,0.761,0.738,1.385,1.464,1.686s1.551,0.244,2.228-0.157l7.045-4.1l4.128,4.196l-4.111,6.966
						c-0.399,0.676-0.458,1.501-0.157,2.227c0.3,0.726,0.925,1.268,1.686,1.464L153.108,59.518z"/>
				</g>
			</g>
		</g>
		<g>
			<g>
				<g>
					<path class="st1" d="M128,221.663c1.381,0,2.5-1.119,2.5-2.5v-15.869h13.845c3.521,0,6.384-2.864,6.384-6.384v-32.69
						c0-3.521-2.864-6.384-6.384-6.384h-32.689c-3.521,0-6.384,2.864-6.384,6.384v32.69c0,3.52,2.864,6.384,6.384,6.384H125.5
						v15.869C125.5,220.544,126.619,221.663,128,221.663z M111.655,198.294c-0.763,0-1.384-0.621-1.384-1.384v-32.69
						c0-0.763,0.621-1.384,1.384-1.384h32.689c0.763,0,1.384,0.621,1.384,1.384v32.69c0,0.763-0.621,1.384-1.384,1.384H111.655z"/>
				</g>
			</g>
		</g>
		<g>
			<g>
				<g>
					<path class="st1" d="M118.693,168.378c-1.381,0-2.5,1.119-2.5,2.5s1.119,2.5,2.5,2.5H128c1.381,0,2.5-1.119,2.5-2.5
						s-1.119-2.5-2.5-2.5H118.693z"/>
				</g>
			</g>
		</g>
		<g>
			<g>
				<g>
					<path class="st1" d="M118.693,178.065c-1.381,0-2.5,1.119-2.5,2.5s1.119,2.5,2.5,2.5h18.614c1.381,0,2.5-1.119,2.5-2.5
						s-1.119-2.5-2.5-2.5H118.693z"/>
				</g>
			</g>
		</g>
		<g>
			<g>
				<g>
					<path class="st1" d="M118.693,187.752c-1.381,0-2.5,1.119-2.5,2.5s1.119,2.5,2.5,2.5h18.614c1.381,0,2.5-1.119,2.5-2.5
						s-1.119-2.5-2.5-2.5H118.693z"/>
				</g>
			</g>
		</g>
		<g>
			<g>
				<g>
					<path class="st1" d="M116.577,62.493c0,6.298,5.125,11.423,11.423,11.423s11.423-5.125,11.423-11.423S134.298,51.07,128,51.07
						S116.577,56.195,116.577,62.493z M134.423,62.493c0,3.542-2.881,6.423-6.423,6.423s-6.423-2.881-6.423-6.423
						s2.881-6.423,6.423-6.423S134.423,58.952,134.423,62.493z"/>
				</g>
			</g>
		</g>
	</g>
	<g>
		<g>
			<g>
				<g>
					<g>
						<g>
							<g>
								<path class="st6" d="M93.652,96.952c-0.977,0.976-0.977,2.559,0,3.535l13.025,13.025c0.488,0.488,1.128,0.732,1.768,0.732
									s1.28-0.244,1.768-0.732c0.977-0.976,0.977-2.559,0-3.535L97.187,96.952C96.211,95.975,94.627,95.975,93.652,96.952z"/>
							</g>
						</g>
					</g>
					<g>
						<g>
							<g>
								<path class="st6" d="M80.506,81.623c-1.144,0.138-2.045,1.039-2.183,2.183c-0.079,0.657-1.838,16.189,6.992,25.019
									c6.219,6.22,15.764,7.186,21.093,7.186c2.236,0,3.731-0.17,3.926-0.194c1.144-0.138,2.045-1.039,2.183-2.183
									c0.079-0.657,1.838-16.189-6.992-25.019C96.695,79.785,81.163,81.543,80.506,81.623z M107.68,110.98
									c-4.105,0.128-13.393-0.254-18.83-5.691c-5.438-5.438-5.818-14.723-5.691-18.83c4.112-0.124,13.393,0.254,18.83,5.691
									C107.427,97.588,107.807,106.875,107.68,110.98z"/>
							</g>
						</g>
					</g>
				</g>
				<g>
					<g>
						<g>
							<g>
								<path class="st6" d="M145.14,114.16c0.488,0.488,1.128,0.732,1.768,0.732s1.28-0.244,1.768-0.732l13.673-13.673
									c0.977-0.976,0.977-2.559,0-3.535c-0.976-0.977-2.56-0.977-3.535,0l-13.673,13.673
									C144.164,111.601,144.164,113.184,145.14,114.16z"/>
							</g>
						</g>
					</g>
					<g>
						<g>
							<g>
								<path class="st6" d="M143.484,113.633c0.138,1.144,1.039,2.045,2.183,2.183c0.194,0.023,1.688,0.194,3.926,0.194
									c5.33,0,14.874-0.966,21.093-7.186c8.83-8.83,7.071-24.362,6.992-25.019c-0.138-1.144-1.039-2.045-2.183-2.183
									c-0.658-0.079-16.19-1.839-25.019,6.992C141.646,97.444,143.405,112.977,143.484,113.633z M154.011,92.15
									c5.438-5.438,14.722-5.818,18.83-5.691c0.127,4.107-0.253,13.392-5.691,18.83c-5.438,5.438-14.721,5.825-18.83,5.691
									C148.193,106.873,148.573,97.588,154.011,92.15z"/>
							</g>
						</g>
					</g>
				</g>
				<g>
					<g>
						<g>
							<path class="st6" d="M109.092,110.834c-1.381,0-2.5,1.119-2.5,2.5s1.119,2.5,2.5,2.5h37.815c1.381,0,2.5-1.119,2.5-2.5
								s-1.119-2.5-2.5-2.5H109.092z"/>
						</g>
					</g>
				</g>
				<g>
					<g>
						<g>
							<g>
								<path class="st6" d="M151.381,39.228l-4.116-4.116c-1.632-1.633-4.163-1.954-6.156-0.782l-4.103,2.422l-1.19-4.617
									c-0.579-2.235-2.596-3.797-4.905-3.797h-5.821c-2.309,0-4.326,1.562-4.906,3.8l-1.189,4.614l-4.106-2.424
									c-1.989-1.17-4.52-0.848-6.153,0.784l-4.116,4.116c-1.633,1.633-1.956,4.163-0.783,6.156l2.422,4.104l-4.617,1.189
									c-2.236,0.579-3.798,2.596-3.798,4.906v5.821c0,2.309,1.561,4.326,3.8,4.906l4.614,1.189l-2.424,4.106
									c-1.171,1.991-0.849,4.521,0.785,6.153l4.116,4.116c1.632,1.633,4.164,1.957,6.156,0.782l4.104-2.422l1.19,4.618
									c0.579,2.236,2.596,3.797,4.905,3.797h5.821c2.309,0,4.326-1.561,4.906-3.8l1.189-4.614l4.105,2.423
									c1.99,1.172,4.521,0.849,6.154-0.784l4.116-4.116c1.634-1.633,1.957-4.164,0.783-6.156l-2.422-4.104l4.618-1.19
									c2.236-0.579,3.797-2.596,3.797-4.905v-5.821c0-2.31-1.562-4.327-3.798-4.906c0,0-0.001,0-0.002,0l-4.615-1.189l2.423-4.106
									C153.337,43.391,153.015,40.86,151.381,39.228z M153.108,55.518l0.624-2.421l-0.576,2.485l-0.047,5.886l-7.833,2.018
									c-0.761,0.196-1.385,0.738-1.686,1.464c-0.301,0.726-0.243,1.551,0.157,2.227l4.1,7.045l-4.196,4.128l-6.966-4.111
									c-0.677-0.4-1.502-0.458-2.227-0.157c-0.726,0.301-1.269,0.925-1.464,1.686l-2.083,7.88l-5.886-0.047l-2.018-7.833
									c-0.196-0.761-0.738-1.385-1.464-1.686c-0.307-0.127-0.632-0.19-0.957-0.19c-0.441,0-0.881,0.117-1.271,0.347l-7.045,4.1
									l-4.128-4.195l4.112-6.966c0.399-0.677,0.458-1.502,0.157-2.228c-0.301-0.726-0.925-1.269-1.686-1.464l-7.88-2.083
									l0.048-5.886l7.833-2.019c0.761-0.196,1.385-0.738,1.686-1.464c0.301-0.726,0.243-1.551-0.157-2.228l-4.1-7.045l4.195-4.128
									l6.966,4.112c0.676,0.399,1.501,0.458,2.228,0.157s1.269-0.925,1.464-1.686l2.083-7.88l5.886,0.047l2.018,7.833
									c0.196,0.761,0.738,1.385,1.464,1.686s1.551,0.244,2.228-0.157l7.045-4.1l4.128,4.196l-4.111,6.966
									c-0.399,0.676-0.458,1.501-0.157,2.227c0.3,0.726,0.925,1.268,1.686,1.464L153.108,55.518z"/>
							</g>
						</g>
					</g>
					<g>
						<g>
							<g>
								<path class="st6" d="M125.5,86.149v54.238c0,1.381,1.119,2.5,2.5,2.5s2.5-1.119,2.5-2.5V86.149c0-1.381-1.119-2.5-2.5-2.5
									S125.5,84.769,125.5,86.149z"/>
							</g>
						</g>
					</g>
					<g>
						<g>
							<g>
								<path class="st7" d="M151.381,39.228l-4.116-4.116c-0.976-0.976-2.272-1.483-3.583-1.483c-0.882,0-1.771,0.23-2.573,0.701
									l-4.103,2.422l-1.19-4.617c-0.579-2.235-2.596-3.797-4.905-3.797h-5.821c-2.309,0-4.326,1.562-4.906,3.8l-1.189,4.614
									l-4.106-2.424c-0.799-0.47-1.686-0.7-2.567-0.7c-1.311,0-2.609,0.508-3.586,1.484l-4.116,4.116
									c-1.633,1.633-1.956,4.163-0.783,6.156l2.422,4.104l-4.617,1.189c-2.236,0.579-3.798,2.596-3.798,4.906v5.821
									c0,2.309,1.561,4.326,3.8,4.906l4.614,1.189l-2.424,4.106c-1.171,1.991-0.849,4.521,0.785,6.153l4.116,4.116
									c0.976,0.976,2.273,1.485,3.584,1.485c0.882,0,1.771-0.23,2.572-0.702l4.104-2.422l1.19,4.618
									c0.579,2.236,2.596,3.797,4.905,3.797h0.411v22.185h-12.806c0.131-5.001-0.481-15.531-7.17-22.219
									c-6.218-6.219-15.762-7.186-21.092-7.186c-2.238,0-3.733,0.17-3.927,0.194c-1.144,0.138-2.045,1.039-2.183,2.183
									c-0.079,0.657-1.838,16.189,6.992,25.019c6.219,6.22,15.764,7.186,21.093,7.186c1.923,0,3.293-0.126,3.763-0.176H125.5
									v24.553c0,1.381,1.119,2.5,2.5,2.5s2.5-1.119,2.5-2.5v-24.553h15.329c0.471,0.05,1.839,0.176,3.763,0.176
									c5.33,0,14.874-0.966,21.093-7.186c8.83-8.83,7.071-24.362,6.992-25.019c-0.138-1.144-1.039-2.045-2.183-2.183
									c-0.194-0.023-1.69-0.194-3.928-0.194c-5.33,0-14.873,0.966-21.091,7.185c-6.689,6.688-7.3,17.218-7.17,22.219H130.5V88.649
									h0.411c2.309,0,4.326-1.561,4.906-3.8l1.189-4.614l4.105,2.423c0.8,0.471,1.687,0.701,2.569,0.701
									c1.311,0,2.609-0.508,3.585-1.485l4.116-4.116c1.634-1.633,1.957-4.164,0.783-6.156l-2.422-4.104l4.618-1.19
									c2.236-0.579,3.797-2.596,3.797-4.905v-5.821c0-2.31-1.562-4.327-3.798-4.906c0,0-0.001,0-0.002,0l-4.615-1.189l2.423-4.106
									C153.337,43.391,153.015,40.86,151.381,39.228z M153.732,53.097l-0.576,2.485l-0.047,5.886l-7.833,2.018
									c-0.761,0.196-1.385,0.738-1.686,1.464c-0.301,0.726-0.243,1.551,0.157,2.227l4.1,7.045l-4.196,4.128l-6.966-4.111
									c-0.39-0.231-0.829-0.347-1.27-0.347c-0.324,0-0.65,0.063-0.957,0.191c-0.726,0.301-1.269,0.925-1.464,1.686l-2.083,7.88
									l-5.886-0.047l-2.018-7.833c-0.196-0.761-0.738-1.385-1.464-1.686c-0.307-0.127-0.632-0.19-0.957-0.19
									c-0.441,0-0.881,0.117-1.271,0.347l-7.045,4.1l-4.128-4.195l4.112-6.966c0.399-0.677,0.458-1.502,0.157-2.228
									c-0.301-0.726-0.925-1.269-1.686-1.464l-7.88-2.083l0.048-5.886l7.833-2.019c0.761-0.196,1.385-0.738,1.686-1.464
									c0.301-0.726,0.243-1.551-0.157-2.228l-4.1-7.045l4.195-4.128l6.966,4.112c0.39,0.23,0.829,0.347,1.271,0.347
									c0.324,0,0.649-0.063,0.957-0.19c0.726-0.301,1.269-0.925,1.464-1.686l2.083-7.88l5.886,0.047l2.018,7.833
									c0.196,0.761,0.738,1.385,1.464,1.686c0.308,0.127,0.633,0.191,0.958,0.191c0.441,0,0.88-0.117,1.27-0.347l7.045-4.1
									l4.128,4.196l-4.111,6.966c-0.399,0.676-0.458,1.501-0.157,2.227c0.3,0.726,0.925,1.268,1.686,1.464l7.833,2.019
									L153.732,53.097z M150.873,44.619l-2.423,4.106c-0.24,0.406-0.274,0.901-0.094,1.337c0.18,0.435,0.555,0.761,1.012,0.878
									l3.532,0.91c-0.296,0.198-0.524,0.501-0.619,0.873l-0.25,0.968l-6.38-1.644c-0.303-0.078-0.555-0.297-0.675-0.586
									c-0.12-0.288-0.096-0.621,0.063-0.89l4.111-6.966c0.345-0.585,0.254-1.33-0.223-1.814l-4.128-4.196
									c-0.29-0.295-0.678-0.448-1.07-0.448c-0.258,0-0.519,0.067-0.754,0.204l-7.054,4.105c-0.153,0.091-0.328,0.138-0.506,0.138
									c-0.132,0-0.261-0.026-0.384-0.077c-0.289-0.12-0.508-0.372-0.586-0.674l-2.018-7.833c-0.17-0.658-0.761-1.12-1.44-1.126
									l-5.886-0.047c-0.004,0-0.008,0-0.012,0c-0.68,0-1.276,0.458-1.45,1.117l-2.085,7.89c-0.078,0.302-0.297,0.554-0.586,0.674
									c-0.122,0.051-0.251,0.076-0.383,0.076c-0.179,0-0.354-0.048-0.508-0.139l-6.966-4.112c-0.237-0.14-0.5-0.208-0.762-0.208
									c-0.384,0-0.764,0.147-1.052,0.431l-4.195,4.128c-0.489,0.481-0.589,1.231-0.244,1.824l4.104,7.053
									c0.159,0.269,0.182,0.602,0.062,0.892c-0.119,0.288-0.371,0.507-0.674,0.585l-7.833,2.019
									c-0.658,0.17-1.12,0.761-1.126,1.44l-0.048,5.886c-0.006,0.685,0.454,1.287,1.117,1.462l7.89,2.085
									c0.302,0.078,0.554,0.297,0.674,0.586c0.12,0.288,0.096,0.621-0.063,0.891l-4.112,6.966
									c-0.346,0.585-0.254,1.33,0.223,1.815l4.128,4.195c0.29,0.294,0.678,0.448,1.07,0.448c0.258,0,0.519-0.067,0.754-0.203
									l7.055-4.105c0.153-0.09,0.328-0.138,0.507-0.138c0.132,0,0.26,0.026,0.383,0.076c0.289,0.12,0.508,0.372,0.586,0.675
									l2.018,7.833c0.17,0.658,0.761,1.12,1.44,1.126l5.886,0.047c0.004,0,0.008,0,0.012,0c0.68,0,1.276-0.458,1.45-1.117
									l2.085-7.89c0.078-0.302,0.297-0.554,0.587-0.674c0.122-0.05,0.25-0.076,0.382-0.076c0.178,0,0.354,0.048,0.508,0.139
									l6.966,4.111c0.237,0.14,0.5,0.208,0.762,0.208c0.384,0,0.764-0.147,1.052-0.431l4.196-4.128
									c0.489-0.481,0.589-1.231,0.245-1.824l-4.105-7.054c-0.159-0.269-0.182-0.601-0.063-0.89
									c0.12-0.289,0.372-0.508,0.674-0.586l7.833-2.018c0.658-0.17,1.12-0.761,1.126-1.44l0.046-5.72l0.539-2.324
									c0.059-0.255,0.049-0.511-0.018-0.747c0.909,0.656,1.48,1.721,1.48,2.893v5.821c0,1.626-1.099,3.046-2.671,3.453
									l-4.618,1.19c-0.456,0.118-0.831,0.443-1.011,0.879c-0.18,0.435-0.146,0.93,0.094,1.336l2.421,4.102
									c0.826,1.402,0.6,3.185-0.551,4.334l-4.116,4.116c-0.674,0.674-1.57,1.045-2.524,1.045c-0.635,0-1.26-0.171-1.806-0.493
									l-4.105-2.423c-0.234-0.138-0.498-0.208-0.763-0.208c-0.194,0-0.39,0.038-0.574,0.114c-0.436,0.18-0.761,0.555-0.879,1.012
									l-1.189,4.612c-0.408,1.576-1.829,2.676-3.454,2.676H130.5c-0.828,0-1.5,0.672-1.5,1.5v22.185c0,0.828,0.672,1.5,1.5,1.5
									h12.806c0.405,0,0.792-0.163,1.074-0.453s0.436-0.681,0.425-1.086c-0.11-4.216,0.326-14.714,6.731-21.12
									c5.868-5.87,15.068-6.746,20.03-6.746c2.164,0,3.593,0.164,3.749,0.183c0.459,0.055,0.817,0.414,0.873,0.873
									c0.076,0.627,1.755,15.461-6.563,23.779c-5.869,5.87-15.07,6.746-20.032,6.746c-1.836,0-3.132-0.117-3.604-0.167
									c-0.053-0.006-0.106-0.008-0.159-0.008H130.5c-0.828,0-1.5,0.672-1.5,1.5v24.553c0,0.551-0.449,1-1,1s-1-0.449-1-1v-24.553
									c0-0.828-0.672-1.5-1.5-1.5h-15.329c-0.053,0-0.106,0.003-0.159,0.008c-0.472,0.05-1.769,0.167-3.604,0.167
									c-4.962,0-14.163-0.876-20.032-6.746c-8.318-8.318-6.639-23.151-6.563-23.779c0.055-0.459,0.414-0.818,0.875-0.873
									c0.061-0.008,1.528-0.183,3.745-0.183c4.962,0,14.162,0.877,20.031,6.746c6.406,6.406,6.841,16.903,6.731,21.119
									c-0.011,0.405,0.143,0.796,0.425,1.086s0.67,0.453,1.074,0.453H125.5c0.828,0,1.5-0.672,1.5-1.5V88.649
									c0-0.828-0.672-1.5-1.5-1.5h-0.411c-1.626,0-3.046-1.099-3.453-2.671l-1.19-4.618c-0.118-0.457-0.443-0.831-0.879-1.012
									c-0.184-0.076-0.379-0.114-0.574-0.114c-0.265,0-0.528,0.07-0.763,0.208l-4.103,2.422c-0.549,0.323-1.174,0.495-1.81,0.495
									c-0.954,0-1.85-0.371-2.523-1.045l-4.117-4.117c-1.15-1.149-1.377-2.93-0.553-4.329l2.424-4.106
									c0.24-0.406,0.274-0.901,0.094-1.336c-0.18-0.436-0.555-0.761-1.012-0.879l-4.612-1.188
									c-1.576-0.408-2.676-1.829-2.676-3.454v-5.821c0-1.626,1.099-3.046,2.672-3.453l4.617-1.189
									c0.457-0.118,0.831-0.443,1.012-0.879s0.146-0.931-0.094-1.337l-2.421-4.102c-0.825-1.403-0.599-3.185,0.551-4.335
									l4.116-4.116c0.674-0.674,1.571-1.045,2.525-1.045c0.634,0,1.259,0.17,1.805,0.491l4.106,2.424
									c0.234,0.138,0.498,0.208,0.763,0.208c0.194,0,0.39-0.038,0.574-0.114c0.435-0.18,0.761-0.555,0.879-1.012l1.188-4.612
									c0.408-1.576,1.829-2.677,3.454-2.677h5.821c1.625,0,3.045,1.099,3.453,2.671l1.19,4.617
									c0.118,0.456,0.443,0.831,0.879,1.011c0.184,0.076,0.379,0.114,0.574,0.114c0.265,0,0.529-0.07,0.763-0.208l4.101-2.421
									c0.55-0.323,1.177-0.494,1.813-0.494c0.954,0,1.85,0.371,2.523,1.044l4.116,4.116
									C151.471,41.438,151.697,43.219,150.873,44.619z"/>
								<path class="st7" d="M84.359,84.941c-0.452,0-0.869,0.007-1.245,0.019c-0.793,0.024-1.43,0.66-1.454,1.453
									c-0.124,4.027,0.224,14.031,6.13,19.937c4.499,4.498,11.3,5.786,16.214,6.074c0.03,0.002,0.059,0.003,0.088,0.003
									c0.588,0,1.125-0.344,1.368-0.886c0.255-0.568,0.133-1.235-0.308-1.675l-10.44-10.44c-0.189-0.189-0.293-0.44-0.293-0.707
									s0.104-0.518,0.294-0.707c0.188-0.189,0.439-0.293,0.706-0.293c0.267,0,0.518,0.104,0.707,0.293l10.439,10.439
									c0.287,0.287,0.671,0.439,1.061,0.439c0.207,0,0.417-0.043,0.614-0.132c0.568-0.255,0.919-0.835,0.883-1.456
									c-0.288-4.914-1.576-11.716-6.074-16.214C97.7,85.74,89.043,84.941,84.359,84.941z M97.187,96.952
									c-0.488-0.488-1.128-0.732-1.768-0.732s-1.28,0.244-1.768,0.732c-0.977,0.976-0.977,2.559,0,3.535l10.439,10.439
									c-4.626-0.271-11.065-1.462-15.241-5.637c-5.438-5.438-5.818-14.723-5.691-18.83c0.362-0.011,0.764-0.018,1.2-0.018
									c4.516,0,12.672,0.75,17.631,5.709c4.176,4.176,5.366,10.615,5.637,15.241L97.187,96.952z"/>
								<path class="st7" d="M147.759,108.759c0.197,0.089,0.406,0.132,0.614,0.132c0.39,0,0.774-0.152,1.061-0.439l10.44-10.44
									c0.188-0.189,0.439-0.293,0.706-0.293c0.267,0,0.518,0.104,0.707,0.293c0.189,0.189,0.293,0.44,0.293,0.707
									s-0.104,0.518-0.293,0.707l-10.442,10.442c-0.44,0.44-0.563,1.107-0.308,1.675c0.243,0.541,0.78,0.886,1.368,0.886
									c0.029,0,0.058-0.001,0.088-0.003c4.912-0.286,11.713-1.572,16.218-6.077c5.906-5.906,6.254-15.91,6.13-19.937
									c-0.025-0.792-0.661-1.428-1.453-1.453c-0.381-0.012-0.805-0.019-1.265-0.019c-4.677,0-13.322,0.799-18.672,6.149
									c-4.498,4.498-5.786,11.3-6.074,16.214C146.84,107.925,147.191,108.504,147.759,108.759z M154.011,92.15
									c4.952-4.952,13.094-5.709,17.612-5.71c0.443,0,0.852,0.007,1.219,0.019c0.127,4.107-0.253,13.392-5.691,18.83
									c-4.178,4.178-10.617,5.371-15.244,5.64l10.442-10.442c0.977-0.976,0.977-2.559,0-3.535
									c-0.488-0.488-1.128-0.732-1.768-0.732s-1.28,0.244-1.768,0.732l-10.439,10.439
									C148.645,102.764,149.835,96.326,154.011,92.15z"/>
							</g>
						</g>
					</g>
				</g>
			</g>
		</g>
		<g>
			<g>
				<g>
					<path class="st4" d="M125.5,196.794v18.369c0,1.381,1.119,2.5,2.5,2.5s2.5-1.119,2.5-2.5v-18.369c0-1.381-1.119-2.5-2.5-2.5
						S125.5,195.413,125.5,196.794z"/>
				</g>
			</g>
		</g>
		<g>
			<g>
				<g>
					<g>
						<path class="st5" d="M125.5,196.794v18.369c0,1.381,1.119,2.5,2.5,2.5s2.5-1.119,2.5-2.5v-18.369c0-1.381-1.119-2.5-2.5-2.5
							S125.5,195.413,125.5,196.794z M129,196.794v18.369c0,0.551-0.449,1-1,1s-1-0.449-1-1v-18.369c0-0.551,0.449-1,1-1
							S129,196.243,129,196.794z"/>
					</g>
				</g>
			</g>
		</g>
		<g>
			<g>
				<g>
					<g>
						<g>
							<path class="st2" d="M109.291,125.124H83.327c-5.289,0-9.591,4.302-9.591,9.591v14.418c0,1.381,1.119,2.5,2.5,2.5
								s2.5-1.119,2.5-2.5v-14.418c0-2.531,2.06-4.591,4.591-4.591h25.964c1.667,0,3.204,0.905,4.013,2.361l5.065,9.117
								c0.67,1.206,2.191,1.641,3.4,0.971c1.207-0.671,1.642-2.193,0.971-3.4l-5.065-9.116
								C115.985,127.014,112.772,125.124,109.291,125.124z"/>
						</g>
					</g>
				</g>
				<g>
					<g>
						<g>
							<path class="st2" d="M169.825,212.663H140.64c-1.381,0-2.5,1.119-2.5,2.5s1.119,2.5,2.5,2.5h29.185
								c6.859,0,12.439-5.58,12.439-12.439v-54.898c0-6.859-5.58-12.439-12.439-12.439H86.175c-6.859,0-12.439,5.58-12.439,12.439
								v54.898c0,6.859,5.58,12.439,12.439,12.439h29.185c1.381,0,2.5-1.119,2.5-2.5s-1.119-2.5-2.5-2.5H86.175
								c-4.102,0-7.439-3.337-7.439-7.439v-54.898c0-4.102,3.337-7.439,7.439-7.439h83.649c4.102,0,7.439,3.337,7.439,7.439v54.898
								C177.264,209.326,173.927,212.663,169.825,212.663z"/>
						</g>
					</g>
				</g>
			</g>
		</g>
		<g>
			<g>
				<g>
					<path class="st3" d="M114.615,131.756c-1.073-1.932-3.114-3.133-5.324-3.133H83.327c-3.358,0-6.091,2.732-6.091,6.091v5.666
						c0,0.568,0.321,1.088,0.829,1.342c0.212,0.106,0.442,0.158,0.671,0.158c0.319,0,0.635-0.102,0.9-0.3
						c1.913-1.435,4.174-2.193,6.539-2.193h30.13c0.531,0,1.023-0.281,1.293-0.739c0.269-0.458,0.276-1.025,0.018-1.489
						L114.615,131.756z M86.175,137.887c-2.791,0-5.361,0.935-7.439,2.493v-5.666c0-2.531,2.06-4.591,4.591-4.591h25.964
						c1.667,0,3.204,0.905,4.013,2.361l3.001,5.402H86.175z"/>
					<path class="st3" d="M169.825,212.663H140.64c-1.381,0-2.5,1.119-2.5,2.5s1.119,2.5,2.5,2.5h29.185
						c6.859,0,12.439-5.58,12.439-12.439v-54.898c0-6.859-5.58-12.439-12.439-12.439h-47.799l-4.351-7.831
						c-1.69-3.043-4.903-4.933-8.384-4.933H83.327c-5.289,0-9.591,4.302-9.591,9.591v70.51c0,6.859,5.58,12.439,12.439,12.439
						h29.185c1.381,0,2.5-1.119,2.5-2.5s-1.119-2.5-2.5-2.5H86.175c-4.102,0-7.439-3.337-7.439-7.439v-54.898
						c0-4.102,3.337-7.439,7.439-7.439h83.649c4.102,0,7.439,3.337,7.439,7.439v54.898
						C177.264,209.326,173.927,212.663,169.825,212.663z M169.825,141.387H86.175c-4.929,0-8.939,4.01-8.939,8.939v54.898
						c0,4.929,4.01,8.939,8.939,8.939h29.185c0.551,0,1,0.449,1,1s-0.449,1-1,1H86.175c-6.032,0-10.939-4.907-10.939-10.939v-70.51
						c0-4.461,3.63-8.091,8.091-8.091h25.964c2.937,0,5.647,1.595,7.073,4.162l4.351,7.831c0.265,0.476,0.767,0.771,1.311,0.771
						h47.799c6.032,0,10.939,4.907,10.939,10.939v54.898c0,6.032-4.907,10.939-10.939,10.939H140.64c-0.551,0-1-0.449-1-1
						s0.449-1,1-1h29.185c4.929,0,8.939-4.01,8.939-8.939v-54.898C178.764,145.397,174.754,141.387,169.825,141.387z"/>
				</g>
			</g>
		</g>
		<g>
			<g>
				<g>
					<g>
						<path class="st6" d="M111.655,153.836c-3.521,0-6.384,2.864-6.384,6.384v32.69c0,3.52,2.864,6.384,6.384,6.384h32.689
							c3.521,0,6.384-2.864,6.384-6.384v-32.69c0-3.521-2.864-6.384-6.384-6.384H111.655z M145.729,160.22v32.69
							c0,0.763-0.621,1.384-1.384,1.384h-32.689c-0.763,0-1.384-0.621-1.384-1.384v-32.69c0-0.763,0.621-1.384,1.384-1.384h32.689
							C145.108,158.836,145.729,159.457,145.729,160.22z"/>
					</g>
				</g>
			</g>
			<g>
				<g>
					<g>
						<path class="st6" d="M118.693,164.378c-1.381,0-2.5,1.119-2.5,2.5s1.119,2.5,2.5,2.5H128c1.381,0,2.5-1.119,2.5-2.5
							s-1.119-2.5-2.5-2.5H118.693z"/>
					</g>
				</g>
			</g>
			<g>
				<g>
					<g>
						<path class="st6" d="M118.693,174.065c-1.381,0-2.5,1.119-2.5,2.5s1.119,2.5,2.5,2.5h18.614c1.381,0,2.5-1.119,2.5-2.5
							s-1.119-2.5-2.5-2.5H118.693z"/>
					</g>
				</g>
			</g>
			<g>
				<g>
					<g>
						<path class="st6" d="M118.693,183.752c-1.381,0-2.5,1.119-2.5,2.5s1.119,2.5,2.5,2.5h18.614c1.381,0,2.5-1.119,2.5-2.5
							s-1.119-2.5-2.5-2.5H118.693z"/>
					</g>
				</g>
			</g>
		</g>
		<g>
			<g>
				<g>
					<g>
						<path class="st7" d="M111.655,157.336c-1.59,0-2.884,1.294-2.884,2.884v32.69c0,1.59,1.294,2.884,2.884,2.884h32.689
							c1.59,0,2.884-1.294,2.884-2.884v-32.69c0-1.59-1.294-2.884-2.884-2.884H111.655z M145.729,160.22v32.69
							c0,0.763-0.621,1.384-1.384,1.384h-32.689c-0.763,0-1.384-0.621-1.384-1.384v-32.69c0-0.763,0.621-1.384,1.384-1.384h32.689
							C145.108,158.836,145.729,159.457,145.729,160.22z"/>
						<path class="st7" d="M111.655,153.836c-3.521,0-6.384,2.864-6.384,6.384v32.69c0,3.52,2.864,6.384,6.384,6.384h32.689
							c3.521,0,6.384-2.864,6.384-6.384v-32.69c0-3.521-2.864-6.384-6.384-6.384H111.655z M149.229,160.22v32.69
							c0,2.693-2.191,4.884-4.884,4.884h-32.689c-2.693,0-4.884-2.191-4.884-4.884v-32.69c0-2.693,2.191-4.884,4.884-4.884h32.689
							C147.038,155.336,149.229,157.527,149.229,160.22z"/>
					</g>
				</g>
			</g>
			<g>
				<g>
					<g>
						<path class="st7" d="M118.693,164.378c-1.381,0-2.5,1.119-2.5,2.5s1.119,2.5,2.5,2.5H128c1.381,0,2.5-1.119,2.5-2.5
							s-1.119-2.5-2.5-2.5H118.693z M129,166.878c0,0.551-0.449,1-1,1h-9.307c-0.551,0-1-0.449-1-1s0.449-1,1-1H128
							C128.551,165.878,129,166.327,129,166.878z"/>
					</g>
				</g>
			</g>
			<g>
				<g>
					<g>
						<path class="st7" d="M118.693,174.065c-1.381,0-2.5,1.119-2.5,2.5s1.119,2.5,2.5,2.5h18.614c1.381,0,2.5-1.119,2.5-2.5
							s-1.119-2.5-2.5-2.5H118.693z M138.307,176.565c0,0.551-0.449,1-1,1h-18.614c-0.551,0-1-0.449-1-1s0.449-1,1-1h18.614
							C137.859,175.565,138.307,176.014,138.307,176.565z"/>
					</g>
				</g>
			</g>
			<g>
				<g>
					<g>
						<path class="st7" d="M118.693,183.752c-1.381,0-2.5,1.119-2.5,2.5s1.119,2.5,2.5,2.5h18.614c1.381,0,2.5-1.119,2.5-2.5
							s-1.119-2.5-2.5-2.5H118.693z M138.307,186.252c0,0.551-0.449,1-1,1h-18.614c-0.551,0-1-0.449-1-1s0.449-1,1-1h18.614
							C137.859,185.252,138.307,185.701,138.307,186.252z"/>
					</g>
				</g>
			</g>
		</g>
		<g>
			<g>
				<g>
					<path class="st4" d="M116.577,58.493c0,6.298,5.125,11.423,11.423,11.423s11.423-5.125,11.423-11.423S134.298,47.07,128,47.07
						S116.577,52.195,116.577,58.493z M134.423,58.493c0,3.542-2.881,6.423-6.423,6.423s-6.423-2.881-6.423-6.423
						s2.881-6.423,6.423-6.423S134.423,54.952,134.423,58.493z"/>
				</g>
			</g>
		</g>
		<g>
			<g>
				<g>
					<g>
						<path class="st5" d="M120.077,58.493c0,4.369,3.554,7.923,7.923,7.923c4.369,0,7.923-3.554,7.923-7.923
							S132.369,50.57,128,50.57C123.631,50.57,120.077,54.125,120.077,58.493z M134.423,58.493c0,3.542-2.881,6.423-6.423,6.423
							s-6.423-2.881-6.423-6.423s2.881-6.423,6.423-6.423S134.423,54.952,134.423,58.493z"/>
						<path class="st5" d="M116.577,58.493c0,6.298,5.125,11.423,11.423,11.423s11.423-5.125,11.423-11.423S134.298,47.07,128,47.07
							S116.577,52.195,116.577,58.493z M137.923,58.493c0,5.471-4.451,9.923-9.923,9.923c-5.471,0-9.923-4.451-9.923-9.923
							s4.451-9.923,9.923-9.923C133.471,48.57,137.923,53.022,137.923,58.493z"/>
					</g>
				</g>
			</g>
		</g>
	</g>
</g>
</svg>
